<?xml version="1.0" encoding="UTF-8"?>
<svg id="Ebene_1" xmlns="http://www.w3.org/2000/svg" version="1.1" viewBox="0 0 32 32">
  <!-- Generator: Adobe Illustrator 29.7.1, SVG Export Plug-In . SVG Version: 2.1.1 Build 8)  -->
  <defs>
    <style>
      .st0, .st1 {
        fill: #b4b4b4;
      }

      .st1 {
        stroke: #b4b4b4;
        stroke-miterlimit: 10;
        stroke-width: .25px;
      }
    </style>
  </defs>
  <path class="st0" d="M22,10h-12c-1.1,0-2,.9-2,2v10c0,1.1.9,2,2,2h12c1.1,0,2-.9,2-2v-10c0-1.1-.9-2-2-2ZM20,18c0,.28-.23.5-.5.5h-2v2c0,.28-.23.5-.5.5h-1.99c-.28,0-.5-.23-.5-.5v-2h-2c-.28,0-.5-.23-.5-.5v-1.99c0-.28.23-.5.5-.5h2v-2c0-.28.23-.5.5-.5h1.99c.28,0,.5.23.5.5v2h2c.28,0,.5.23.5.5v1.99Z"/>
  <rect class="st1" x="12" y="7.5" width="8" height="1" rx=".5" ry=".5"/>
  <rect class="st1" x="9.5" y="10" width="6" height="1" rx=".5" ry=".5" transform="translate(23 -2) rotate(90)"/>
  <rect class="st1" x="16.5" y="10" width="6" height="1" rx=".5" ry=".5" transform="translate(30 -9) rotate(90)"/>
</svg>