<?xml version="1.0" encoding="UTF-8"?>
<svg id="Ebene_2" xmlns="http://www.w3.org/2000/svg" version="1.1" viewBox="0 0 32 32">
  <!-- Generator: Adobe Illustrator 29.7.1, SVG Export Plug-In . SVG Version: 2.1.1 Build 8)  -->
  <defs>
    <style>
      .st0 {
        fill: #b4b4b4;
      }
    </style>
  </defs>
  <rect class="st0" x="12.63" y="11.92" width="1.44" height="3.83" rx=".3" ry=".3" transform="translate(-5.87 13.49) rotate(-45)"/>
  <path class="st0" d="M21.29,13.34c-.24.24-.63.24-.87,0l-.89-.89c-.24-.24-.24-.63,0-.87l1.77-1.77c-.34-.13-.7-.21-1.08-.21-1.66,0-3,1.34-3,3s1.34,3,3,3,3-1.34,3-3c0-.35-.07-.69-.18-1l-1.75,1.75Z"/>
  <path class="st0" d="M10.2,10.41l-.34.34c-.16.16-.2.41-.09.62l.76,1.43c.05.09.12.17.22.22l1.43.76c.2.11.45.07.62-.09l.34-.34c.16-.16.2-.41.09-.62l-.76-1.43c-.05-.09-.12-.17-.22-.22l-1.43-.76c-.2-.11-.45-.07-.62.09Z"/>
  <path class="st0" d="M19.87,12.95c-.56-.56-1.6-.44-2.32.28l-7.15,7.15c-.71.71-.84,1.75-.28,2.32s1.6.44,2.32-.28l7.15-7.15c.71-.71.84-1.75.28-2.32ZM11.22,22.22c-.36,0-.65-.29-.65-.65s.29-.65.65-.65.65.29.65.65-.29.65-.65.65Z"/>
  <path class="st0" d="M22.02,20.46l-.56-.56s0,0,0,0h0c-.89-.89-1.77-1.77-2.66-2.66-.06-.06-.17-.06-.23,0l-2.17,2.17c-.06.06-.06.17,0,.23l2.66,2.66s.03.01.05.02l.52.52c.63.63,1.66.63,2.28,0l.1-.1c.63-.63.63-1.66,0-2.28ZM21.14,21.46c-.14.14-.37.14-.51,0l-2.36-2.36c-.14-.14-.14-.37,0-.51.14-.14.37-.14.51,0l2.36,2.36c.14.14.14.37,0,.51Z"/>
</svg>